# xmcd CD database file
#
# Track frame offsets:
#	150
#	47485
#	87261
#	115762
#	144792
#	170702
#	201694
#	228960
#
# Disc length: 3470 seconds
#
# Revision: 0
# Processed by: cddbd v1.5.2PL0 Copyright (c) Steve Scherf et al.
# Submitted via: CDex 1.70beta2
#
DISCID=670d8c08
DTITLE=Toumani Diabate - The Mande Variations
DYEAR=1900
DGENRE=Jazz
TTITLE0=Si Naani
TTITLE1=Elyne Road
TTITLE2=Ali Farka Toure
TTITLE3=Kaounding Cissoko
TTITLE4=Ismael Drame
TTITLE5=Djourou Kara Nany
TTITLE6=El Nabiyouna
TTITLE7=Cantelowes
EXTD=
EXTT0=
EXTT1=
EXTT2=
EXTT3=
EXTT4=
EXTT5=
EXTT6=
EXTT7=
PLAYORDER=
